<?xml version="1.0" encoding="UTF-8"?>
<svg id="Calque_1" data-name="Calque 1" xmlns="http://www.w3.org/2000/svg" viewBox="0 0 100 100">
  <defs>
    <style>
      .cls-1 {
        stroke-width: 0px;
      }
    </style>
  </defs>
  <path class="cls-1" d="m66.19,18h-32.38c-8.73,0-15.8,7.08-15.81,15.81v32.38c0,8.73,7.08,15.8,15.81,15.81h32.38c8.73,0,15.8-7.08,15.81-15.81v-32.38c0-8.73-7.08-15.8-15.81-15.81Zm9.74,48.19c0,5.37-4.36,9.73-9.74,9.74h-32.38c-5.37,0-9.73-4.36-9.74-9.74v-32.38c0-5.37,4.36-9.73,9.74-9.74h32.38c5.37,0,9.73,4.36,9.74,9.74v32.38Z"/>
  <path class="cls-1" d="m50,34.76c-8.42,0-15.24,6.82-15.24,15.24s6.82,15.24,15.24,15.24c8.42,0,15.24-6.82,15.24-15.24,0-8.41-6.83-15.23-15.24-15.24Zm0,24.41c-5.06,0-9.17-4.1-9.17-9.17s4.1-9.17,9.17-9.17c5.06,0,9.17,4.1,9.17,9.17,0,5.06-4.11,9.16-9.17,9.17Z"/>
  <path class="cls-1" d="m65.86,30.07c-2.25,0-4.07,1.82-4.07,4.07,0,2.25,1.82,4.07,4.07,4.07,2.25,0,4.07-1.82,4.07-4.07h0c0-2.25-1.82-4.07-4.07-4.07Z"/>
</svg>